<svg width="16" height="18" viewBox="0 0 16 18" fill="none" xmlns="http://www.w3.org/2000/svg">
<path d="M0 0L1.44258 16.1952L7.91559 18L14.4067 16.1886L15.8504 0H0ZM12.8535 3.71038L12.3733 9.10552L12.3747 9.13464L12.3727 9.20165V9.20107L12.0316 12.9734L11.994 13.3086L7.9252 14.4339L7.92205 14.4368L3.86031 13.3051L3.58528 10.1863H5.57705L5.71837 11.7722L7.92578 12.3704L7.9252 12.3716V12.3713L10.1408 11.7646L10.3749 9.18199H5.74333L5.70359 8.74541L5.61306 7.72263L5.56558 7.17343H10.551L10.7323 5.16487H3.13909L3.09935 4.72858L3.00897 3.70551L2.96133 3.15631H12.901L12.8535 3.71038Z" fill="#3996DB"/>
</svg>
