<svg width="20" height="20" viewBox="0 0 20 20" fill="none" xmlns="http://www.w3.org/2000/svg">
<path fill-rule="evenodd" clip-rule="evenodd" d="M9.74992 0C4.36589 0 0 4.36492 0 9.74992C0 14.0579 2.79365 17.7124 6.66759 19.0018C7.1547 19.0922 7.33359 18.7902 7.33359 18.5327C7.33359 18.3002 7.32455 17.5322 7.32035 16.7175C4.60791 17.3073 4.03556 15.5671 4.03556 15.5671C3.59204 14.4402 2.953 14.1405 2.953 14.1405C2.06823 13.5354 3.01969 13.548 3.01969 13.548C3.99858 13.6166 4.51427 14.5527 4.51427 14.5527C5.38387 16.0429 6.79514 15.6122 7.35151 15.3632C7.43902 14.7331 7.6917 14.3028 7.97053 14.0593C5.80494 13.8131 3.52827 12.9769 3.52827 9.24102C3.52827 8.17655 3.9093 7.30679 4.533 6.62384C4.43161 6.37843 4.09788 5.38677 4.62729 4.04379C4.62729 4.04379 5.44586 3.78175 7.30905 5.0432C8.08694 4.82701 8.92117 4.71835 9.74992 4.71464C10.5782 4.71835 11.4129 4.82669 12.1922 5.04287C14.0532 3.78143 14.8708 4.04347 14.8708 4.04347C15.4015 5.38629 15.0677 6.3781 14.9665 6.62351C15.5917 7.30647 15.97 8.17622 15.97 9.24069C15.97 12.9855 13.6891 13.8099 11.518 14.0514C11.8679 14.354 12.1795 14.9475 12.1795 15.8569C12.1795 17.1615 12.1682 18.2114 12.1682 18.5326C12.1682 18.792 12.3438 19.096 12.8379 19.0003C16.7096 17.7096 19.5 14.0562 19.5 9.74992C19.4998 4.36525 15.1344 0 9.74992 0Z" fill="#C0C4CE"/>
<path d="M3.69279 13.9986C3.67132 14.047 3.59511 14.0616 3.52568 14.0285C3.45464 13.9968 3.41509 13.9308 3.43801 13.8822C3.459 13.8321 3.53537 13.8184 3.60593 13.8518C3.67697 13.8836 3.71749 13.9502 3.69279 13.9986ZM4.08771 14.4392C4.04137 14.4823 3.95047 14.4623 3.8888 14.394C3.82486 14.3262 3.81291 14.2353 3.86022 14.1915C3.90833 14.1486 3.99649 14.1689 4.06042 14.2367C4.12403 14.3055 4.13647 14.3955 4.08771 14.4392ZM4.47229 15.0006C4.41255 15.0422 4.31471 15.0033 4.25433 14.9166C4.19459 14.8298 4.19459 14.7256 4.25594 14.6841C4.31617 14.6425 4.41255 14.6801 4.47391 14.766C4.53332 14.854 4.53332 14.9583 4.47229 15.0006ZM4.9988 15.5432C4.94552 15.6022 4.83153 15.5863 4.74822 15.5061C4.66313 15.4275 4.6394 15.3156 4.69284 15.2568C4.74709 15.1977 4.86156 15.2142 4.94535 15.2939C5.03044 15.3724 5.05579 15.4846 4.9988 15.5432ZM5.72534 15.8582C5.70161 15.9346 5.59214 15.9693 5.48154 15.9367C5.37127 15.9033 5.2991 15.814 5.32171 15.7368C5.34431 15.6598 5.45458 15.6238 5.56582 15.6585C5.6761 15.6918 5.74827 15.7806 5.72534 15.8582ZM6.52341 15.9165C6.52616 15.9969 6.43251 16.0634 6.31675 16.0651C6.20002 16.0678 6.10557 16.0026 6.10444 15.9235C6.10444 15.8422 6.19614 15.7765 6.31271 15.7743C6.42848 15.7722 6.52341 15.8369 6.52341 15.9165ZM7.26578 15.7903C7.27966 15.8686 7.1991 15.9491 7.08398 15.9706C6.97096 15.9916 6.86602 15.9428 6.85149 15.8652C6.8376 15.7848 6.91962 15.7042 7.03264 15.6834C7.14792 15.6635 7.25125 15.7107 7.26578 15.7903Z" fill="#C0C4CE"/>
</svg>
