<svg width="24" height="24" viewBox="0 0 24 24" fill="none" xmlns="http://www.w3.org/2000/svg">
<path d="M22.7839 5.65251C23.0514 4.78976 23.1372 3.88095 23.0359 2.98338C22.9346 2.08582 22.6484 1.21898 22.1955 0.437514C22.1187 0.304469 22.0082 0.193992 21.8751 0.117193C21.7421 0.040394 21.5911 -2.01833e-05 21.4375 1.43187e-05C20.4183 -0.00211896 19.4128 0.234147 18.5012 0.689935C17.5896 1.14572 16.7973 1.8084 16.1875 2.62501H13.5625C12.9527 1.8084 12.1604 1.14572 11.2488 0.689935C10.3372 0.234147 9.33167 -0.00211896 8.3125 1.43187e-05C8.15887 -2.01833e-05 8.00794 0.040394 7.87489 0.117193C7.74183 0.193992 7.63135 0.304469 7.55453 0.437514C7.10155 1.21898 6.8154 2.08582 6.71413 2.98338C6.61285 3.88095 6.69864 4.78976 6.96609 5.65251C6.42548 6.59611 6.13589 7.66258 6.125 8.75001V9.62501C6.12684 11.1055 6.6643 12.5354 7.63812 13.6505C8.61194 14.7657 9.95636 15.4908 11.4231 15.692C10.8244 16.4582 10.4994 17.4027 10.5 18.375V19.25H7.875C7.17881 19.25 6.51113 18.9735 6.01884 18.4812C5.52656 17.9889 5.25 17.3212 5.25 16.625C5.25 16.0505 5.13684 15.4816 4.91697 14.9508C4.69711 14.42 4.37485 13.9377 3.96859 13.5314C3.56234 13.1252 3.08004 12.8029 2.54924 12.583C2.01844 12.3632 1.44953 12.25 0.875 12.25C0.642936 12.25 0.420376 12.3422 0.256282 12.5063C0.0921873 12.6704 0 12.8929 0 13.125C0 13.3571 0.0921873 13.5796 0.256282 13.7437C0.420376 13.9078 0.642936 14 0.875 14C1.57119 14 2.23887 14.2766 2.73116 14.7689C3.22344 15.2611 3.5 15.9288 3.5 16.625C3.5 17.7853 3.96094 18.8981 4.78141 19.7186C5.60188 20.5391 6.71468 21 7.875 21H10.5V22.75C10.5 22.9821 10.5922 23.2046 10.7563 23.3687C10.9204 23.5328 11.1429 23.625 11.375 23.625C11.6071 23.625 11.8296 23.5328 11.9937 23.3687C12.1578 23.2046 12.25 22.9821 12.25 22.75V18.375C12.25 17.6788 12.5266 17.0111 13.0188 16.5189C13.5111 16.0266 14.1788 15.75 14.875 15.75C15.5712 15.75 16.2389 16.0266 16.7312 16.5189C17.2234 17.0111 17.5 17.6788 17.5 18.375V22.75C17.5 22.9821 17.5922 23.2046 17.7563 23.3687C17.9204 23.5328 18.1429 23.625 18.375 23.625C18.6071 23.625 18.8296 23.5328 18.9937 23.3687C19.1578 23.2046 19.25 22.9821 19.25 22.75V18.375C19.2506 17.4027 18.9256 16.4582 18.3269 15.692C19.7936 15.4908 21.1381 14.7657 22.1119 13.6505C23.0857 12.5354 23.6232 11.1055 23.625 9.62501V8.75001C23.6141 7.66258 23.3245 6.59611 22.7839 5.65251ZM21.875 9.62501C21.875 10.7853 21.4141 11.8981 20.5936 12.7186C19.7731 13.5391 18.6603 14 17.5 14H12.25C11.0897 14 9.97688 13.5391 9.15641 12.7186C8.33594 11.8981 7.875 10.7853 7.875 9.62501V8.75001C7.88573 7.87504 8.14769 7.02158 8.62969 6.29126C8.71954 6.17283 8.77774 6.03346 8.79879 5.8863C8.81984 5.73914 8.80305 5.58904 8.75 5.45017C8.52209 4.86239 8.4124 4.2354 8.42723 3.60515C8.44206 2.9749 8.5811 2.35377 8.83641 1.77736C9.5525 1.85439 10.2421 2.09161 10.854 2.47142C11.466 2.85123 11.9846 3.3639 12.3714 3.97142C12.4502 4.09469 12.5587 4.19623 12.6869 4.26673C12.8151 4.33724 12.959 4.37447 13.1053 4.37501H16.6436C16.7905 4.37502 16.935 4.33805 17.0638 4.26752C17.1926 4.19699 17.3017 4.09516 17.3808 3.97142C17.7676 3.36385 18.2862 2.85114 18.8981 2.47132C19.5101 2.0915 20.1997 1.85432 20.9158 1.77736C21.1707 2.35392 21.3094 2.97512 21.3239 3.60537C21.3383 4.23562 21.2283 4.86253 21 5.45017C20.9471 5.58772 20.9294 5.73629 20.9485 5.88241C20.9676 6.02853 21.0229 6.16756 21.1094 6.28689C21.5962 7.01721 21.862 7.87243 21.875 8.75001V9.62501Z" fill="#878EA1"/>
</svg>
