<svg width="18" height="20" viewBox="0 0 18 20" fill="none" xmlns="http://www.w3.org/2000/svg">
<path d="M16.5734 4.32077L9.46206 0.191583C9.01358 -0.0638609 8.42964 -0.0638609 7.97762 0.191583L0.79036 4.32077C0.327529 4.58702 0 5.08743 0 5.62267V13.8701C0 14.4053 0.336076 14.9059 0.798907 15.1736L2.6978 16.2521C3.6054 16.6992 3.92616 16.6992 4.33916 16.6992C5.68298 16.6992 6.4506 15.8865 6.4506 14.4692V6.32691C6.4506 6.21193 6.39077 6.04083 6.27788 6.04083H5.37109C5.25627 6.04083 4.99921 6.21193 4.99921 6.32675V14.469C4.99921 15.0973 4.43092 15.7225 3.36883 15.1915L1.40671 14.0605C1.33834 14.0234 1.29012 13.9488 1.29012 13.8701V5.62267C1.29012 5.54494 1.37962 5.46688 1.44848 5.42705L8.61252 1.30496C8.67944 1.26706 8.77781 1.26706 8.84458 1.30496L15.9212 5.42608C15.9889 5.46688 15.9651 5.54252 15.9651 5.62267V13.8701C15.9651 13.9488 15.9946 14.0254 15.9277 14.0633L8.81813 18.1878C8.75717 18.2244 8.68154 18.2244 8.61477 18.1878L6.79135 17.0994C6.73636 17.0675 6.67105 17.056 6.61831 17.0855C6.11097 17.3731 6.01744 17.4113 5.54155 17.5763C5.42447 17.6171 5.25175 17.6879 5.60767 17.8874L7.99407 19.2991C8.2219 19.4307 8.48036 19.5 8.74346 19.5C9.00826 19.5 9.26758 19.4313 9.49609 19.2991L16.5732 15.1736C17.036 14.9039 17.2554 14.4053 17.2554 13.8701V5.62267C17.2554 5.08743 17.036 4.58831 16.5734 4.32077ZM10.9515 12.5632C9.06051 12.5632 8.64396 12.0415 8.50511 11.1012C8.48899 10.9999 8.40303 10.8788 8.29999 10.8788H7.37578C7.26144 10.8788 7.16952 11.0175 7.16952 11.1313C7.16952 12.3353 7.82409 13.7941 10.9517 13.7941C13.2157 13.7941 14.5137 12.9144 14.5137 11.3576C14.5137 9.81394 13.4708 9.40884 11.2752 9.11824C9.05583 8.8249 8.83039 8.6767 8.83039 8.15678C8.83039 7.72814 9.02132 7.15646 10.6646 7.15646C12.1329 7.15646 12.6741 7.47157 12.8968 8.46125C12.9159 8.5543 13.0009 8.62106 13.0968 8.62106H14.0247C14.0818 8.62106 14.1363 8.598 14.1763 8.5572C14.215 8.51334 14.2355 8.45835 14.2303 8.39933C14.0867 6.69508 12.9544 5.90085 10.6645 5.90085C8.62751 5.90085 7.41238 6.76103 7.41238 8.2029C7.41238 9.76685 8.62139 10.199 10.5767 10.3924C12.9159 10.6217 13.0978 10.9636 13.0978 11.4237C13.0978 12.2228 12.4563 12.5632 10.9515 12.5632Z" fill="#82BC4F"/>
</svg>
