<svg width="20" height="18" viewBox="0 0 20 18" fill="none" xmlns="http://www.w3.org/2000/svg">
<path d="M10.3109 15.5092C10.1376 15.356 9.95676 15.2022 9.78401 15.0319C9.64592 15.1595 9.5165 15.2791 9.37957 15.3982C7.66994 16.8719 5.90773 17.4855 4.86311 16.889C3.85259 16.3182 3.53424 14.6319 3.93868 12.5104C3.98182 12.2804 4.03363 12.0505 4.0941 11.8205C3.91268 11.7671 3.73992 11.718 3.56717 11.6603C1.41612 10.9261 0 9.73374 0 8.54084C0 7.39119 1.32137 6.27518 3.38517 5.55965C3.61628 5.48276 3.8601 5.4064 4.11085 5.33805C4.05308 5.11645 4.00743 4.90339 3.9641 4.69728C3.53193 2.54375 3.8341 0.823281 4.85329 0.243916C5.91524 -0.369622 7.67745 0.286635 9.44716 1.82822C9.55059 1.92167 9.65459 2.02419 9.76667 2.12618C9.93076 1.97293 10.0862 1.81968 10.2503 1.68352C11.9258 0.24178 13.5921 -0.361079 14.6113 0.218286C15.6732 0.814203 15.9847 2.65428 15.5097 4.92902C15.4837 5.07426 15.452 5.21043 15.415 5.3562C15.6311 5.41601 15.8466 5.48382 16.0453 5.55217C18.1525 6.2677 19.5172 7.38371 19.4998 8.55899C19.4998 9.75991 18.0404 10.9443 15.8021 11.6769C15.6813 11.7111 15.5606 11.7538 15.4392 11.7874C15.4912 11.9578 15.5253 12.1281 15.56 12.2984C16.0089 14.5048 15.6634 16.3107 14.6188 16.9072C14.3445 17.0598 14.029 17.1376 13.7088 17.1314C12.7514 17.1298 11.5358 16.5473 10.3109 15.5092ZM12.0038 12.3828C11.5077 13.096 10.9626 13.7789 10.3716 14.4274C10.5357 14.5876 10.6998 14.7344 10.8639 14.8706C12.2887 16.08 13.6014 16.5318 14.2149 16.1826C14.4023 16.0334 14.5554 15.851 14.6652 15.6462C14.775 15.4414 14.8391 15.2183 14.854 14.9902C14.9786 14.1448 14.9434 13.2859 14.75 12.4517C14.724 12.2984 14.6922 12.1452 14.6465 11.9834C13.7764 12.1716 12.8935 12.305 12.0038 12.3828ZM4.76663 12.6557C4.41303 14.4712 4.67187 15.8243 5.28662 16.174C5.50442 16.2581 5.73957 16.297 5.9754 16.2877C6.21124 16.2785 6.442 16.2215 6.65132 16.1206C7.46565 15.8043 8.20727 15.3475 8.83646 14.7745C8.96588 14.672 9.08664 14.5529 9.21663 14.4338C8.61268 13.7851 8.05308 13.1023 7.54109 12.3892C6.65481 12.3208 5.77469 12.1959 4.90703 12.0154C4.85329 12.2381 4.80996 12.4506 4.76663 12.6557ZM9.79325 13.848C10.1734 13.4305 10.553 12.9707 10.9332 12.4597C10.553 12.4768 10.1561 12.4853 9.75858 12.4853C9.36108 12.4853 8.99015 12.4768 8.61864 12.4597C9.0069 12.9616 9.39632 13.4305 9.79325 13.848ZM7.97904 5.53402C7.65087 6.00231 7.33136 6.49518 7.02919 7.01634C6.72701 7.52735 6.45141 8.04691 6.20008 8.56487C6.4595 9.07588 6.73568 9.59544 7.03785 10.1241C7.34003 10.6351 7.65954 11.1386 7.98771 11.6144C8.55739 11.6486 9.15366 11.6678 9.75801 11.6678C10.3624 11.6678 10.9667 11.6507 11.5456 11.6085C11.8565 11.1402 12.176 10.6372 12.4787 10.1177C12.7815 9.59811 13.0658 9.07001 13.3165 8.55899C13.0658 8.05652 12.7809 7.53696 12.4787 7.01687C12.1766 6.49678 11.8571 6.00231 11.5375 5.53455C10.9598 5.49183 10.3629 5.4662 9.75858 5.4662C9.15423 5.4662 8.55797 5.4913 7.97904 5.53402ZM5.12947 11.2326C5.722 11.3577 6.32173 11.4516 6.92576 11.514C6.71834 11.1904 6.5115 10.8663 6.31275 10.5256C6.12266 10.1935 5.93257 9.86136 5.75982 9.52923C5.50964 10.1081 5.30222 10.6799 5.12947 11.2326ZM13.2038 10.5171C13.0051 10.8578 12.8063 11.1814 12.6082 11.4969C13.2213 11.4259 13.8296 11.3236 14.4305 11.1904C14.2429 10.6154 14.0238 10.0496 13.7741 9.49505C13.5927 9.83573 13.4026 10.1764 13.2038 10.5171ZM3.65268 6.34299C1.89105 6.95653 0.829104 7.84987 0.829104 8.54938C0.862689 8.77442 0.944033 8.99112 1.06847 9.18703C1.1929 9.38295 1.35797 9.55422 1.55421 9.69102C2.22823 10.2149 3.00116 10.6191 3.8341 10.8834C3.98952 10.9368 4.15361 10.9774 4.3177 11.0286C4.58297 10.1907 4.90307 9.3685 5.27622 8.56647C4.90235 7.77817 4.58505 6.96798 4.32636 6.14115C4.09333 6.19882 3.86877 6.2661 3.65268 6.34299ZM14.249 8.54938C14.6323 9.34122 14.9603 10.1549 15.2313 10.9854C15.3439 10.9512 15.456 10.917 15.5594 10.8829C17.4851 10.2528 18.6794 9.29001 18.6858 8.5403C18.6858 7.84186 17.5805 6.93838 15.7755 6.32537C15.5941 6.2661 15.3959 6.20629 15.1977 6.14649C14.9361 6.96497 14.6192 7.76751 14.249 8.54938ZM13.1958 6.59022C13.3945 6.9309 13.5846 7.26357 13.7568 7.5957C13.9967 7.05289 14.2042 6.49832 14.3785 5.9345C13.7919 5.80278 13.198 5.70046 12.5995 5.628C12.8069 5.94251 13.0057 6.25809 13.1958 6.59022ZM5.13813 5.92756C5.31147 6.47275 5.51831 7.02648 5.75982 7.59677C5.93315 7.26463 6.12266 6.9325 6.31275 6.60037C6.50283 6.26823 6.70101 5.94465 6.90843 5.62907C6.28675 5.70436 5.69973 5.80635 5.13813 5.92756ZM10.7945 2.3072C10.6478 2.43482 10.501 2.57098 10.3537 2.70768C10.9534 3.34818 11.5045 4.02616 12.0032 4.73679C12.8821 4.81519 13.7537 4.95189 14.6113 5.14582C14.646 5.0182 14.6691 4.89004 14.698 4.76242C15.1024 2.80326 14.8534 1.30386 14.197 0.929542C14.053 0.854807 13.8895 0.817878 13.7244 0.822747C13.019 0.819543 11.9362 1.32735 10.7945 2.3056V2.3072ZM5.26756 0.950901C4.65454 1.30012 4.41245 2.697 4.77529 4.53708C4.81863 4.73305 4.86196 4.92849 4.91338 5.133C5.77217 4.94621 6.64344 4.81242 7.52145 4.73252C8.02193 4.02099 8.57604 3.34295 9.17966 2.70341C9.0849 2.60943 8.9809 2.52453 8.88615 2.43909C7.68438 1.38876 6.52883 0.834494 5.77426 0.834494C5.59692 0.828904 5.42142 0.869222 5.26756 0.950901ZM10.9153 4.6647C10.5591 4.18846 10.1749 3.73069 9.76436 3.29345C9.3761 3.71049 8.98726 4.17078 8.60882 4.6647C8.98899 4.64762 9.36859 4.63907 9.75743 4.63907C10.1463 4.63907 10.5351 4.64602 10.9153 4.6647ZM8.03104 8.58356C8.02295 8.36462 8.06168 8.14636 8.14502 7.94129C8.22836 7.73621 8.35467 7.54835 8.51671 7.38847C8.67875 7.2286 8.87334 7.09984 9.08932 7.0096C9.3053 6.91935 9.53843 6.86938 9.77534 6.86255C10.2534 6.8776 10.7054 7.06722 11.0324 7.38984C11.3594 7.71245 11.5346 8.14173 11.5196 8.58356C11.5351 9.02574 11.36 9.45552 11.0328 9.77849C10.7057 10.1015 10.2532 10.2913 9.77476 10.3062C9.53772 10.2993 9.30447 10.2493 9.08841 10.159C8.87234 10.0686 8.67772 9.9397 8.5157 9.77964C8.35368 9.61958 8.22746 9.43153 8.14429 9.22627C8.06112 9.02102 8.02264 8.8026 8.03104 8.58356Z" fill="#3996DB"/>
</svg>
